# xmcd
#
# Track frame offsets:
#   150
#   14119
#   27693
#   46428
#   62740
#   78693
#   97041
#   111897
#   129411
#   142367
#   160057
#   173846
#   190377
#   206309
#   220511
#   234145
#   252283
#   266782
#   280917
#   296348
#   313581
#   329658
#
# Disc length: 4631 seconds
#
# Revision: 0
# Processed by: cddbd v1.5.1PL0 Copyright (c) Steve Scherf et al.
# Submitted via: Media_Universe 3.0
#
DISCID=54121516
DTITLE=Trace Adkins - More and Dreamin Out Loud
DYEAR=1900
DGENRE=Country
TTITLE0=More
TTITLE1=Im Gonna Love You Anyway
TTITLE2=Shes Still Here
TTITLE3=Someday
TTITLE4=Can I Want Your Love
TTITLE5=Dont Lie
TTITLE6=A Working Mans Wage
TTITLE7=The Night He Cant Remember
TTITLE8=I Can Dig It
TTITLE9=Everyhthing Takes Me Back
TTITLE10=All Hat No Cattle
TTITLE11=Every Other Friday At Five
TTITLE12=Theres A Girl In Texas
TTITLE13=I Left Something Turned On At Home
TTITLE14=Every Light In The House 
TTITLE15=(This Aint) No Thinkin Thing
TTITLE16=Dreamin Out Loud
TTITLE17=If I Fall (Youre Goin With Me)
TTITLE18=It Was You
TTITLE19=I Can Only Love You Like A Man
TTITLE20=634-5789 (Soulsville U.S.A)
TTITLE21=A Bad Way To Say Goodbye
EXTD=
EXTT0=
EXTT1=
EXTT2=
EXTT3=
EXTT4=
EXTT5=
EXTT6=
EXTT7=
EXTT8=
EXTT9=
EXTT10=
EXTT11=
EXTT12=
EXTT13=
EXTT14=
EXTT15=
EXTT16=
EXTT17=
EXTT18=
EXTT19=
EXTT20=
EXTT21=
PLAYORDER=
